<?xml version="1.0" encoding="UTF-8" standalone="no"?>
<!DOCTYPE svg PUBLIC "-//W3C//DTD SVG 1.1//EN"
 "http://www.w3.org/Graphics/SVG/1.1/DTD/svg11.dtd">
<!-- Generated by graphviz version 8.0.1 (20230327.1645)
 -->
<!-- Title: model_control Pages: 1 -->
<svg width="655pt" height="509pt"
 viewBox="0.00 0.00 654.50 509.00" xmlns="http://www.w3.org/2000/svg" xmlns:xlink="http://www.w3.org/1999/xlink">
<g id="graph0" class="graph" transform="scale(1 1) rotate(0) translate(72 437)">
<title>model_control</title>
<polygon fill="white" stroke="none" points="-72,72 -72,-437 582.5,-437 582.5,72 -72,72"/>
<!-- legend -->
<g id="node1" class="node">
<title>legend</title>
<polygon fill="#2998ba" stroke="none" points="9.5,-345 9.5,-364 55.5,-364 55.5,-345 9.5,-345"/>
<text text-anchor="start" x="11.5" y="-350.8" font-family="Times,serif" font-size="14.00">F_INIT</text>
<polygon fill="#eddea1" stroke="none" points="55.5,-345 55.5,-364 81.5,-364 81.5,-345 55.5,-345"/>
<text text-anchor="start" x="57.5" y="-350.8" font-family="Times,serif" font-size="14.00">O_I</text>
<text text-anchor="start" x="83.5" y="-351.8" font-family="Times,serif" font-weight="bold" font-size="14.00">legend</text>
<polygon fill="#f1c40f" stroke="none" points="123.5,-345 123.5,-364 135.5,-364 135.5,-345 123.5,-345"/>
<text text-anchor="start" x="125.5" y="-350.8" font-family="Times,serif" font-size="14.00">S</text>
<polygon fill="#e67e22" stroke="none" points="135.5,-345 135.5,-364 164.5,-364 164.5,-345 135.5,-345"/>
<text text-anchor="start" x="137.5" y="-350.8" font-family="Times,serif" font-size="14.00">O_F</text>
<polygon fill="none" stroke="black" points="8.5,-344 8.5,-365 165.5,-365 165.5,-344 8.5,-344"/>
</g>
<!-- db_source -->
<g id="node2" class="node">
<title>db_source</title>
<polygon fill="#2998ba" stroke="none" points="209.5,-345 209.5,-364 213.5,-364 213.5,-345 209.5,-345"/>
<polygon fill="#eddea1" stroke="none" points="213.5,-345 213.5,-364 217.5,-364 217.5,-345 213.5,-345"/>
<text text-anchor="start" x="219.5" y="-351.8" font-family="Times,serif" font-weight="bold" font-size="14.00">db_source</text>
<polygon fill="#f1c40f" stroke="none" points="281.5,-345 281.5,-364 285.5,-364 285.5,-345 281.5,-345"/>
<polygon fill="#e67e22" stroke="none" points="285.5,-345 285.5,-364 306.5,-364 306.5,-345 285.5,-345"/>
<text text-anchor="start" x="287.5" y="-350.8" font-family="Times,serif" font-size="14.00">CP</text>
<polygon fill="#e67e22" stroke="none" points="306.5,-345 306.5,-364 319.5,-364 319.5,-345 306.5,-345"/>
<text text-anchor="start" x="308.5" y="-350.8" font-family="Times,serif" font-size="14.00">E</text>
<polygon fill="#e67e22" stroke="none" points="319.5,-345 319.5,-364 328.5,-364 328.5,-345 319.5,-345"/>
<text text-anchor="start" x="321.5" y="-350.8" font-family="Times,serif" font-size="14.00">I</text>
<polygon fill="none" stroke="black" points="208.5,-344 208.5,-365 329.5,-365 329.5,-344 208.5,-344"/>
</g>
<!-- transport -->
<g id="node3" class="node">
<title>transport</title>
<polygon fill="#2998ba" stroke="none" points="200.5,-259 200.5,-278 221.5,-278 221.5,-259 200.5,-259"/>
<text text-anchor="start" x="202.5" y="-264.8" font-family="Times,serif" font-size="14.00">CP</text>
<polygon fill="#eddea1" stroke="none" points="221.5,-259 221.5,-278 242.5,-278 242.5,-259 221.5,-259"/>
<text text-anchor="start" x="223.5" y="-264.8" font-family="Times,serif" font-size="14.00">CP</text>
<text text-anchor="start" x="244.5" y="-265.8" font-family="Times,serif" font-weight="bold" font-size="14.00">transport</text>
<polygon fill="#f1c40f" stroke="none" points="301.5,-259 301.5,-278 322.5,-278 322.5,-259 301.5,-259"/>
<text text-anchor="start" x="303.5" y="-264.8" font-family="Times,serif" font-size="14.00">CP</text>
<polygon fill="#f1c40f" stroke="none" points="322.5,-259 322.5,-278 343.5,-278 343.5,-259 322.5,-259"/>
<text text-anchor="start" x="324.5" y="-264.8" font-family="Times,serif" font-size="14.00">CS</text>
<polygon fill="#e67e22" stroke="none" points="343.5,-259 343.5,-278 347.5,-278 347.5,-259 343.5,-259"/>
<polygon fill="none" stroke="black" points="199.5,-258 199.5,-279 348.5,-279 348.5,-258 199.5,-258"/>
</g>
<!-- db_source&#45;&gt;transport -->
<g id="edge2" class="edge">
<title>db_source:core_profiles_out&#45;&gt;transport:core_profiles_init</title>
<path fill="none" stroke="black" stroke-width="2" d="M296,-344C296,-324.12 236.6,-308.67 217.11,-290.25"/>
<polygon fill="black" stroke="black" stroke-width="2" points="219.85,-288.11 212,-281 213.7,-291.46 219.85,-288.11"/>
<text text-anchor="middle" x="291" y="-309" font-family="Times,serif" font-size="10.00">core_profiles</text>
</g>
<!-- equilibrium -->
<g id="node4" class="node">
<title>equilibrium</title>
<polygon fill="#2998ba" stroke="none" points="392.5,-259 392.5,-278 405.5,-278 405.5,-259 392.5,-259"/>
<text text-anchor="start" x="394.5" y="-264.8" font-family="Times,serif" font-size="14.00">E</text>
<polygon fill="#eddea1" stroke="none" points="405.5,-259 405.5,-278 418.5,-278 418.5,-259 405.5,-259"/>
<text text-anchor="start" x="407.5" y="-264.8" font-family="Times,serif" font-size="14.00">E</text>
<text text-anchor="start" x="420.5" y="-265.8" font-family="Times,serif" font-weight="bold" font-size="14.00">equilibrium</text>
<polygon fill="#f1c40f" stroke="none" points="492.5,-259 492.5,-278 505.5,-278 505.5,-259 492.5,-259"/>
<text text-anchor="start" x="494.5" y="-264.8" font-family="Times,serif" font-size="14.00">E</text>
<polygon fill="#e67e22" stroke="none" points="505.5,-259 505.5,-278 509.5,-278 509.5,-259 505.5,-259"/>
<polygon fill="none" stroke="black" points="391.5,-258 391.5,-279 510.5,-279 510.5,-258 391.5,-258"/>
</g>
<!-- db_source&#45;&gt;equilibrium -->
<g id="edge1" class="edge">
<title>db_source:equilibrium_out&#45;&gt;equilibrium:equilibrium_init</title>
<path fill="none" stroke="black" stroke-width="2" d="M313,-344C313,-301.14 381.82,-321.29 396.33,-291.72"/>
<polygon fill="black" stroke="black" stroke-width="2" points="400.37,-291.51 399,-281 393.52,-290.07 400.37,-291.51"/>
<text text-anchor="middle" x="400.5" y="-309" font-family="Times,serif" font-size="10.00">equilibrium</text>
</g>
<!-- diagnostic -->
<g id="node5" class="node">
<title>diagnostic</title>
<polygon fill="#2998ba" stroke="none" points="162,-173 162,-192 183,-192 183,-173 162,-173"/>
<text text-anchor="start" x="164" y="-178.8" font-family="Times,serif" font-size="14.00">CP</text>
<polygon fill="#2998ba" stroke="none" points="183,-173 183,-192 196,-192 196,-173 183,-173"/>
<text text-anchor="start" x="185" y="-178.8" font-family="Times,serif" font-size="14.00">E</text>
<polygon fill="#eddea1" stroke="none" points="196,-173 196,-192 200,-192 200,-173 196,-173"/>
<text text-anchor="start" x="202" y="-179.8" font-family="Times,serif" font-weight="bold" font-size="14.00">diagnostic</text>
<polygon fill="#f1c40f" stroke="none" points="263,-173 263,-192 267,-192 267,-173 263,-173"/>
<polygon fill="#e67e22" stroke="none" points="267,-173 267,-192 276,-192 276,-173 267,-173"/>
<text text-anchor="start" x="269" y="-178.8" font-family="Times,serif" font-size="14.00">I</text>
<polygon fill="none" stroke="black" points="161,-172 161,-193 277,-193 277,-172 161,-172"/>
</g>
<!-- transport&#45;&gt;diagnostic -->
<g id="edge3" class="edge">
<title>transport:core_profiles_out&#45;&gt;diagnostic:core_profiles_in</title>
<path fill="none" stroke="black" stroke-width="2" d="M232,-258C232,-223.6 186.06,-229.73 174.58,-205.47"/>
<polygon fill="black" stroke="black" stroke-width="2" points="177.45,-204.08 172,-195 170.6,-205.5 177.45,-204.08"/>
<text text-anchor="middle" x="240" y="-223" font-family="Times,serif" font-size="10.00">core_profiles</text>
</g>
<!-- equilibrium&#45;&gt;diagnostic -->
<g id="edge4" class="edge">
<title>equilibrium:equilibrium_out&#45;&gt;diagnostic:equilibrium_in</title>
<path fill="none" stroke="black" stroke-width="2" d="M412,-258C412,-246.83 245.06,-215.99 200.06,-199.52"/>
<polygon fill="black" stroke="black" stroke-width="2" points="201.39,-196.06 191,-194 197.84,-202.09 201.39,-196.06"/>
<text text-anchor="middle" x="345.5" y="-223" font-family="Times,serif" font-size="10.00">equilibrium</text>
</g>
<!-- bridge -->
<g id="node7" class="node">
<title>bridge</title>
<polygon fill="#2998ba" stroke="none" points="94,-87 94,-106 103,-106 103,-87 94,-87"/>
<text text-anchor="start" x="96" y="-92.8" font-family="Times,serif" font-size="14.00">I</text>
<polygon fill="#eddea1" stroke="none" points="103,-87 103,-106 134,-106 134,-87 103,-87"/>
<text text-anchor="start" x="105" y="-92.8" font-family="Times,serif" font-size="14.00">RTD</text>
<text text-anchor="start" x="136" y="-93.8" font-family="Times,serif" font-weight="bold" font-size="14.00">bridge</text>
<polygon fill="#f1c40f" stroke="none" points="176,-87 176,-106 207,-106 207,-87 176,-87"/>
<text text-anchor="start" x="178" y="-92.8" font-family="Times,serif" font-size="14.00">RTD</text>
<polygon fill="#e67e22" stroke="none" points="207,-87 207,-106 226,-106 226,-87 207,-87"/>
<text text-anchor="start" x="209" y="-92.8" font-family="Times,serif" font-size="14.00">GI</text>
<polygon fill="none" stroke="black" points="93,-86 93,-107 227,-107 227,-86 93,-86"/>
</g>
<!-- diagnostic&#45;&gt;bridge -->
<g id="edge5" class="edge">
<title>diagnostic:interferometer_out&#45;&gt;bridge:interferometer_in</title>
<path fill="none" stroke="black" stroke-width="2" d="M272,-172C272,-135.24 133.98,-145.14 103.79,-118.59"/>
<polygon fill="black" stroke="black" stroke-width="2" points="106.6,-116.38 99,-109 100.34,-119.51 106.6,-116.38"/>
<text text-anchor="middle" x="250" y="-137" font-family="Times,serif" font-size="10.00">interferometer</text>
</g>
<!-- actuator -->
<g id="node6" class="node">
<title>actuator</title>
<polygon fill="#2998ba" stroke="none" points="250.5,-1 250.5,-20 269.5,-20 269.5,-1 250.5,-1"/>
<text text-anchor="start" x="252.5" y="-6.8" font-family="Times,serif" font-size="14.00">GI</text>
<polygon fill="#eddea1" stroke="none" points="269.5,-1 269.5,-20 273.5,-20 273.5,-1 269.5,-1"/>
<text text-anchor="start" x="275.5" y="-7.8" font-family="Times,serif" font-weight="bold" font-size="14.00">actuator</text>
<polygon fill="#f1c40f" stroke="none" points="326.5,-1 326.5,-20 330.5,-20 330.5,-1 326.5,-1"/>
<polygon fill="#e67e22" stroke="none" points="330.5,-1 330.5,-20 351.5,-20 351.5,-1 330.5,-1"/>
<text text-anchor="start" x="332.5" y="-6.8" font-family="Times,serif" font-size="14.00">CS</text>
<polygon fill="none" stroke="black" points="249.5,0 249.5,-21 352.5,-21 352.5,0 249.5,0"/>
</g>
<!-- actuator&#45;&gt;transport -->
<g id="edge8" class="edge">
<title>actuator:core_sources_out&#45;&gt;transport:core_sources_in</title>
<path fill="none" stroke="black" stroke-width="2" d="M341,-21C341,-121.97 333.66,-150.27 333.04,-245.13"/>
<polygon fill="black" stroke="black" stroke-width="2" points="329.53,-244.99 333,-255 336.53,-245.01 329.53,-244.99"/>
<text text-anchor="middle" x="364.5" y="-137" font-family="Times,serif" font-size="10.00">core_sources</text>
</g>
<!-- bridge&#45;&gt;actuator -->
<g id="edge6" class="edge">
<title>bridge:gas_injection_out&#45;&gt;actuator:gas_injection_in</title>
<path fill="none" stroke="black" stroke-width="2" d="M227,-96.5C234.19,-96.5 250.43,-55.6 257.08,-33.6"/>
<polygon fill="black" stroke="black" stroke-width="2" points="261.15,-33.53 260,-23 254.33,-31.95 261.15,-33.53"/>
<text text-anchor="middle" x="280" y="-51" font-family="Times,serif" font-size="10.00">gas_injection</text>
</g>
<!-- controller -->
<g id="node8" class="node">
<title>controller</title>
<polygon fill="#2998ba" stroke="none" points="1,-1 1,-20 5,-20 5,-1 1,-1"/>
<polygon fill="#eddea1" stroke="none" points="5,-1 5,-20 36,-20 36,-1 5,-1"/>
<text text-anchor="start" x="7" y="-6.8" font-family="Times,serif" font-size="14.00">RTD</text>
<text text-anchor="start" x="38" y="-7.8" font-family="Times,serif" font-weight="bold" font-size="14.00">controller</text>
<polygon fill="#f1c40f" stroke="none" points="98,-1 98,-20 129,-20 129,-1 98,-1"/>
<text text-anchor="start" x="100" y="-6.8" font-family="Times,serif" font-size="14.00">RTD</text>
<polygon fill="#e67e22" stroke="none" points="129,-1 129,-20 133,-20 133,-1 129,-1"/>
<polygon fill="none" stroke="black" points="0,0 0,-21 134,-21 134,0 0,0"/>
</g>
<!-- bridge&#45;&gt;controller -->
<g id="edge7" class="edge">
<title>bridge:real_time_data_out&#45;&gt;controller:real_time_data_in</title>
<path fill="none" stroke="black" stroke-width="2" d="M118,-86C118,-47.63 58.49,-90.09 36,-59 33.13,-55.04 33.16,-51.98 36,-48 53.95,-22.79 97.14,-47.02 110.2,-33.17"/>
<polygon fill="black" stroke="black" stroke-width="2" points="114.36,-33.59 114,-23 107.68,-31.5 114.36,-33.59"/>
<text text-anchor="middle" x="66.5" y="-51" font-family="Times,serif" font-size="10.00">real_time_data</text>
</g>
<!-- controller&#45;&gt;bridge -->
<g id="edge9" class="edge">
<title>controller:real_time_data_out&#45;&gt;bridge:real_time_data_in</title>
<path fill="none" stroke="black" stroke-width="2" d="M20,-21C20,-59.79 66.68,-34.37 103,-48 110.86,-50.95 160.76,-65.92 182.22,-77.46"/>
<polygon fill="black" stroke="black" stroke-width="2" points="180.17,-81.06 190,-85 184.77,-75.79 180.17,-81.06"/>
<text text-anchor="middle" x="164.5" y="-51" font-family="Times,serif" font-size="10.00">real_time_data</text>
</g>
</g>
</svg>
