<?xml version="1.0" encoding="UTF-8" standalone="no"?>
<!DOCTYPE svg PUBLIC "-//W3C//DTD SVG 1.1//EN"
 "http://www.w3.org/Graphics/SVG/1.1/DTD/svg11.dtd">
<!-- Generated by graphviz version 8.0.1 (20230327.1645)
 -->
<!-- Title: model_control Pages: 1 -->
<svg width="540pt" height="764pt"
 viewBox="0.00 0.00 540.00 764.00" xmlns="http://www.w3.org/2000/svg" xmlns:xlink="http://www.w3.org/1999/xlink">
<g id="graph0" class="graph" transform="scale(1 1) rotate(0) translate(72 692)">
<title>model_control</title>
<polygon fill="white" stroke="none" points="-72,72 -72,-692 468,-692 468,72 -72,72"/>
<!-- db_source -->
<g id="node1" class="node">
<title>db_source</title>
<path fill="none" stroke="black" stroke-width="2" d="M225,-620C225,-620 105,-620 105,-620 99,-620 93,-614 93,-608 93,-608 93,-560 93,-560 93,-554 99,-548 105,-548 105,-548 225,-548 225,-548 231,-548 237,-554 237,-560 237,-560 237,-608 237,-608 237,-614 231,-620 225,-620"/>
<text text-anchor="middle" x="165" y="-580.3" font-family="Times,serif" font-size="14.00">db_source</text>
</g>
<!-- transport -->
<g id="node2" class="node">
<title>transport</title>
<path fill="none" stroke="black" stroke-width="2" d="M132,-483C132,-483 12,-483 12,-483 6,-483 0,-477 0,-471 0,-471 0,-423 0,-423 0,-417 6,-411 12,-411 12,-411 132,-411 132,-411 138,-411 144,-417 144,-423 144,-423 144,-471 144,-471 144,-477 138,-483 132,-483"/>
<text text-anchor="middle" x="72" y="-443.3" font-family="Times,serif" font-size="14.00">transport</text>
</g>
<!-- db_source&#45;&gt;transport -->
<g id="edge2" class="edge">
<title>db_source:core_profiles_out&#45;&gt;transport:core_profiles_init</title>
<path fill="none" stroke="black" stroke-width="2" d="M132.46,-535.77C123.5,-522.75 113.77,-508.63 104.79,-495.59"/>
<polygon fill="black" stroke="black" stroke-width="2" points="132.49,-535.81 139.19,-538.48 139.3,-545.69 132.6,-543.02 132.49,-535.81"/>
<polygon fill="none" stroke="black" stroke-width="2" points="104.62,-495.36 97.93,-492.69 97.82,-485.48 104.51,-488.15 104.62,-495.36"/>
<text text-anchor="middle" x="149" y="-513" font-family="Times,serif" font-size="10.00">core_profiles</text>
</g>
<!-- equilibrium -->
<g id="node3" class="node">
<title>equilibrium</title>
<path fill="none" stroke="black" stroke-width="2" d="M319,-483C319,-483 199,-483 199,-483 193,-483 187,-477 187,-471 187,-471 187,-423 187,-423 187,-417 193,-411 199,-411 199,-411 319,-411 319,-411 325,-411 331,-417 331,-423 331,-423 331,-471 331,-471 331,-477 325,-483 319,-483"/>
<text text-anchor="middle" x="259" y="-443.3" font-family="Times,serif" font-size="14.00">equilibrium</text>
</g>
<!-- db_source&#45;&gt;equilibrium -->
<g id="edge1" class="edge">
<title>db_source:equilibrium_out&#45;&gt;equilibrium:equilibrium_init</title>
<path fill="none" stroke="black" stroke-width="2" d="M197.89,-535.77C207.04,-522.62 216.98,-508.34 226.14,-495.19"/>
<polygon fill="black" stroke="black" stroke-width="2" points="197.83,-535.85 197.68,-543.06 190.97,-545.7 191.12,-538.49 197.83,-535.85"/>
<polygon fill="none" stroke="black" stroke-width="2" points="226.05,-495.32 226.2,-488.11 232.91,-485.47 232.76,-492.68 226.05,-495.32"/>
<text text-anchor="middle" x="238.5" y="-513" font-family="Times,serif" font-size="10.00">equilibrium</text>
</g>
<!-- diagnostic -->
<g id="node4" class="node">
<title>diagnostic</title>
<path fill="none" stroke="black" stroke-width="2" d="M306,-346C306,-346 186,-346 186,-346 180,-346 174,-340 174,-334 174,-334 174,-286 174,-286 174,-280 180,-274 186,-274 186,-274 306,-274 306,-274 312,-274 318,-280 318,-286 318,-286 318,-334 318,-334 318,-340 312,-346 306,-346"/>
<text text-anchor="middle" x="246" y="-306.3" font-family="Times,serif" font-size="14.00">diagnostic</text>
</g>
<!-- transport&#45;&gt;diagnostic -->
<g id="edge3" class="edge">
<title>transport:core_profiles_out&#45;&gt;diagnostic:core_profiles_in</title>
<path fill="none" stroke="black" stroke-width="2" d="M126.01,-404.09C145.91,-388.66 168.51,-371.12 188.68,-355.47"/>
<ellipse fill="black" stroke="black" stroke-width="2" cx="122.12" cy="-407.11" rx="4" ry="4"/>
<polygon fill="none" stroke="black" stroke-width="2" points="188.71,-355.45 191,-348.61 198.19,-348.1 195.9,-354.93 188.71,-355.45"/>
<text text-anchor="middle" x="191" y="-376" font-family="Times,serif" font-size="10.00">core_profiles</text>
</g>
<!-- equilibrium&#45;&gt;diagnostic -->
<g id="edge4" class="edge">
<title>equilibrium:equilibrium_out&#45;&gt;diagnostic:equilibrium_in</title>
<path fill="none" stroke="black" stroke-width="2" d="M254.59,-400.24C253.38,-387.61 252.05,-373.85 250.82,-361"/>
<ellipse fill="black" stroke="black" stroke-width="2" cx="255.07" cy="-405.2" rx="4" ry="4"/>
<polygon fill="none" stroke="black" stroke-width="2" points="250.79,-360.73 246.23,-355.14 249.64,-348.78 254.2,-354.37 250.79,-360.73"/>
<text text-anchor="middle" x="276.5" y="-376" font-family="Times,serif" font-size="10.00">equilibrium</text>
</g>
<!-- bridge -->
<g id="node6" class="node">
<title>bridge</title>
<path fill="none" stroke="black" stroke-width="2" d="M306,-209C306,-209 186,-209 186,-209 180,-209 174,-203 174,-197 174,-197 174,-149 174,-149 174,-143 180,-137 186,-137 186,-137 306,-137 306,-137 312,-137 318,-143 318,-149 318,-149 318,-197 318,-197 318,-203 312,-209 306,-209"/>
<text text-anchor="middle" x="246" y="-169.3" font-family="Times,serif" font-size="14.00">bridge</text>
</g>
<!-- diagnostic&#45;&gt;bridge -->
<g id="edge5" class="edge">
<title>diagnostic:interferometer_out&#45;&gt;bridge:interferometer_in</title>
<path fill="none" stroke="black" stroke-width="2" d="M246,-259.31C246,-247.81 246,-235.58 246,-224.07"/>
<polygon fill="black" stroke="black" stroke-width="2" points="246,-259.37 250,-265.37 246,-271.37 242,-265.37 246,-259.37"/>
<polygon fill="none" stroke="black" stroke-width="2" points="246,-223.79 242,-217.79 246,-211.79 250,-217.79 246,-223.79"/>
<text text-anchor="middle" x="275" y="-239" font-family="Times,serif" font-size="10.00">interferometer</text>
</g>
<!-- actuator -->
<g id="node5" class="node">
<title>actuator</title>
<path fill="none" stroke="black" stroke-width="2" d="M167,-72C167,-72 47,-72 47,-72 41,-72 35,-66 35,-60 35,-60 35,-12 35,-12 35,-6 41,0 47,0 47,0 167,0 167,0 173,0 179,-6 179,-12 179,-12 179,-60 179,-60 179,-66 173,-72 167,-72"/>
<text text-anchor="middle" x="107" y="-32.3" font-family="Times,serif" font-size="14.00">actuator</text>
</g>
<!-- actuator&#45;&gt;transport -->
<g id="edge8" class="edge">
<title>actuator:core_sources_out&#45;&gt;transport:core_sources_in</title>
<path fill="none" stroke="black" stroke-width="2" d="M102.74,-86.73C95.9,-166.73 82.54,-322.86 75.91,-400.25"/>
<polygon fill="black" stroke="black" stroke-width="2" points="102.77,-86.46 99.29,-80.14 103.79,-74.51 107.26,-80.83 102.77,-86.46"/>
<ellipse fill="none" stroke="black" stroke-width="2" cx="75.5" cy="-405.08" rx="4" ry="4"/>
<text text-anchor="middle" x="116.5" y="-239" font-family="Times,serif" font-size="10.00">core_sources</text>
</g>
<!-- bridge&#45;&gt;actuator -->
<g id="edge6" class="edge">
<title>bridge:gas_injection_out&#45;&gt;actuator:gas_injection_in</title>
<path fill="none" stroke="black" stroke-width="2" d="M189.46,-126.93C183.1,-121.37 176.82,-115.66 171,-110 162.48,-101.73 153.81,-92.48 145.71,-83.42"/>
<polygon fill="black" stroke="black" stroke-width="2" points="189.68,-127.12 196.84,-127.98 198.8,-134.91 191.64,-134.06 189.68,-127.12"/>
<polygon fill="none" stroke="black" stroke-width="2" points="145.61,-83.32 138.65,-81.45 137.69,-74.3 144.66,-76.17 145.61,-83.32"/>
<text text-anchor="middle" x="199" y="-102" font-family="Times,serif" font-size="10.00">gas_injection</text>
</g>
<!-- controller -->
<g id="node7" class="node">
<title>controller</title>
<path fill="none" stroke="black" stroke-width="2" d="M384,-72C384,-72 264,-72 264,-72 258,-72 252,-66 252,-60 252,-60 252,-12 252,-12 252,-6 258,0 264,0 264,0 384,0 384,0 390,0 396,-6 396,-12 396,-12 396,-60 396,-60 396,-66 390,-72 384,-72"/>
<text text-anchor="middle" x="324" y="-32.3" font-family="Times,serif" font-size="14.00">controller</text>
</g>
<!-- bridge&#45;&gt;controller -->
<g id="edge7" class="edge">
<title>bridge:real_time_data_out&#45;&gt;controller:real_time_data_in</title>
<path fill="none" stroke="black" stroke-width="2" d="M235.63,-126.6C235.42,-117.11 236.78,-107.43 241,-99 244.59,-91.83 249.45,-85.29 255.02,-79.35"/>
<ellipse fill="black" stroke="black" stroke-width="2" cx="235.98" cy="-131.38" rx="4" ry="4"/>
<ellipse fill="none" stroke="black" stroke-width="2" cx="258.28" cy="-76.17" rx="4" ry="4"/>
<text text-anchor="middle" x="271.5" y="-102" font-family="Times,serif" font-size="10.00">real_time_data</text>
</g>
<!-- controller&#45;&gt;bridge -->
<g id="edge9" class="edge">
<title>controller:real_time_data_out&#45;&gt;bridge:real_time_data_in</title>
<path fill="none" stroke="black" stroke-width="2" d="M318.18,-82.66C315.84,-92.06 312.58,-101.64 308,-110 304.4,-116.57 299.9,-122.91 294.97,-128.86"/>
<ellipse fill="black" stroke="black" stroke-width="2" cx="319.22" cy="-77.86" rx="4" ry="4"/>
<ellipse fill="none" stroke="black" stroke-width="2" cx="291.83" cy="-132.42" rx="4" ry="4"/>
<text text-anchor="middle" x="342.5" y="-102" font-family="Times,serif" font-size="10.00">real_time_data</text>
</g>
</g>
</svg>
