<?xml version="1.0" encoding="UTF-8" standalone="no"?>
<!DOCTYPE svg PUBLIC "-//W3C//DTD SVG 1.1//EN"
 "http://www.w3.org/Graphics/SVG/1.1/DTD/svg11.dtd">
<!-- Generated by graphviz version 8.0.1 (20230327.1645)
 -->
<!-- Title: model_control Pages: 1 -->
<svg width="683pt" height="509pt"
 viewBox="0.00 0.00 682.50 509.00" xmlns="http://www.w3.org/2000/svg" xmlns:xlink="http://www.w3.org/1999/xlink">
<g id="graph0" class="graph" transform="scale(1 1) rotate(0) translate(72 437)">
<title>model_control</title>
<polygon fill="white" stroke="none" points="-72,72 -72,-437 610.5,-437 610.5,72 -72,72"/>
<!-- legend -->
<g id="node1" class="node">
<title>legend</title>
<polygon fill="#2998ba" stroke="none" points="1,-345 1,-364 47,-364 47,-345 1,-345"/>
<text text-anchor="start" x="3" y="-350.8" font-family="Times,serif" font-size="14.00">F_INIT</text>
<polygon fill="#eddea1" stroke="none" points="47,-345 47,-364 73,-364 73,-345 47,-345"/>
<text text-anchor="start" x="49" y="-350.8" font-family="Times,serif" font-size="14.00">O_I</text>
<text text-anchor="start" x="75" y="-351.8" font-family="Times,serif" font-weight="bold" font-size="14.00">legend</text>
<polygon fill="#f1c40f" stroke="none" points="115,-345 115,-364 127,-364 127,-345 115,-345"/>
<text text-anchor="start" x="117" y="-350.8" font-family="Times,serif" font-size="14.00">S</text>
<polygon fill="#e67e22" stroke="none" points="127,-345 127,-364 156,-364 156,-345 127,-345"/>
<text text-anchor="start" x="129" y="-350.8" font-family="Times,serif" font-size="14.00">O_F</text>
<polygon fill="none" stroke="black" points="0,-344 0,-365 157,-365 157,-344 0,-344"/>
</g>
<!-- db_source -->
<g id="node2" class="node">
<title>db_source</title>
<polygon fill="#2998ba" stroke="none" points="201,-345 201,-364 205,-364 205,-345 201,-345"/>
<polygon fill="#eddea1" stroke="none" points="205,-345 205,-364 209,-364 209,-345 205,-345"/>
<text text-anchor="start" x="211" y="-351.8" font-family="Times,serif" font-weight="bold" font-size="14.00">db_source</text>
<polygon fill="#f1c40f" stroke="none" points="273,-345 273,-364 277,-364 277,-345 273,-345"/>
<polygon fill="#e67e22" stroke="none" points="277,-345 277,-364 290,-364 290,-345 277,-345"/>
<text text-anchor="start" x="279" y="-350.8" font-family="Times,serif" font-size="14.00">E</text>
<polygon fill="#e67e22" stroke="none" points="290,-345 290,-364 311,-364 311,-345 290,-345"/>
<text text-anchor="start" x="292" y="-350.8" font-family="Times,serif" font-size="14.00">CP</text>
<polygon fill="#e67e22" stroke="none" points="311,-345 311,-364 320,-364 320,-345 311,-345"/>
<text text-anchor="start" x="313" y="-350.8" font-family="Times,serif" font-size="14.00">I</text>
<polygon fill="none" stroke="black" points="200,-344 200,-365 321,-365 321,-344 200,-344"/>
</g>
<!-- transport -->
<g id="node3" class="node">
<title>transport</title>
<polygon fill="#2998ba" stroke="none" points="365,-259 365,-278 386,-278 386,-259 365,-259"/>
<text text-anchor="start" x="367" y="-264.8" font-family="Times,serif" font-size="14.00">CP</text>
<polygon fill="#eddea1" stroke="none" points="386,-259 386,-278 407,-278 407,-259 386,-259"/>
<text text-anchor="start" x="388" y="-264.8" font-family="Times,serif" font-size="14.00">CP</text>
<text text-anchor="start" x="409" y="-265.8" font-family="Times,serif" font-weight="bold" font-size="14.00">transport</text>
<polygon fill="#f1c40f" stroke="none" points="466,-259 466,-278 487,-278 487,-259 466,-259"/>
<text text-anchor="start" x="468" y="-264.8" font-family="Times,serif" font-size="14.00">CS</text>
<polygon fill="#f1c40f" stroke="none" points="487,-259 487,-278 508,-278 508,-259 487,-259"/>
<text text-anchor="start" x="489" y="-264.8" font-family="Times,serif" font-size="14.00">CP</text>
<polygon fill="#e67e22" stroke="none" points="508,-259 508,-278 512,-278 512,-259 508,-259"/>
<polygon fill="none" stroke="black" points="364,-258 364,-279 513,-279 513,-258 364,-258"/>
</g>
<!-- db_source&#45;&gt;transport -->
<g id="edge2" class="edge">
<title>db_source:core_profiles_out&#45;&gt;transport:core_profiles_init</title>
<path fill="none" stroke="black" stroke-width="2" d="M300.5,-344C300.5,-304.89 359.47,-318.71 372.83,-291.59"/>
<polygon fill="black" stroke="black" stroke-width="2" points="376.85,-291.51 375.5,-281 370,-290.06 376.85,-291.51"/>
<text text-anchor="middle" x="380.5" y="-309" font-family="Times,serif" font-size="10.00">core_profiles</text>
</g>
<!-- equilibrium -->
<g id="node4" class="node">
<title>equilibrium</title>
<polygon fill="#2998ba" stroke="none" points="203,-259 203,-278 216,-278 216,-259 203,-259"/>
<text text-anchor="start" x="205" y="-264.8" font-family="Times,serif" font-size="14.00">E</text>
<polygon fill="#eddea1" stroke="none" points="216,-259 216,-278 229,-278 229,-259 216,-259"/>
<text text-anchor="start" x="218" y="-264.8" font-family="Times,serif" font-size="14.00">E</text>
<text text-anchor="start" x="231" y="-265.8" font-family="Times,serif" font-weight="bold" font-size="14.00">equilibrium</text>
<polygon fill="#f1c40f" stroke="none" points="303,-259 303,-278 316,-278 316,-259 303,-259"/>
<text text-anchor="start" x="305" y="-264.8" font-family="Times,serif" font-size="14.00">E</text>
<polygon fill="#e67e22" stroke="none" points="316,-259 316,-278 320,-278 320,-259 316,-259"/>
<polygon fill="none" stroke="black" points="202,-258 202,-279 321,-279 321,-258 202,-258"/>
</g>
<!-- db_source&#45;&gt;equilibrium -->
<g id="edge1" class="edge">
<title>db_source:equilibrium_out&#45;&gt;equilibrium:equilibrium_init</title>
<path fill="none" stroke="black" stroke-width="2" d="M283.5,-344C283.5,-335.28 236.51,-306.13 217.42,-289.11"/>
<polygon fill="black" stroke="black" stroke-width="2" points="219.42,-286.71 210.5,-281 213.91,-291.03 219.42,-286.71"/>
<text text-anchor="middle" x="278" y="-309" font-family="Times,serif" font-size="10.00">equilibrium</text>
</g>
<!-- diagnostic -->
<g id="node5" class="node">
<title>diagnostic</title>
<polygon fill="#2998ba" stroke="none" points="216.5,-173 216.5,-192 229.5,-192 229.5,-173 216.5,-173"/>
<text text-anchor="start" x="218.5" y="-178.8" font-family="Times,serif" font-size="14.00">E</text>
<polygon fill="#2998ba" stroke="none" points="229.5,-173 229.5,-192 250.5,-192 250.5,-173 229.5,-173"/>
<text text-anchor="start" x="231.5" y="-178.8" font-family="Times,serif" font-size="14.00">CP</text>
<polygon fill="#eddea1" stroke="none" points="250.5,-173 250.5,-192 254.5,-192 254.5,-173 250.5,-173"/>
<text text-anchor="start" x="256.5" y="-179.8" font-family="Times,serif" font-weight="bold" font-size="14.00">diagnostic</text>
<polygon fill="#f1c40f" stroke="none" points="317.5,-173 317.5,-192 321.5,-192 321.5,-173 317.5,-173"/>
<polygon fill="#e67e22" stroke="none" points="321.5,-173 321.5,-192 330.5,-192 330.5,-173 321.5,-173"/>
<text text-anchor="start" x="323.5" y="-178.8" font-family="Times,serif" font-size="14.00">I</text>
<polygon fill="none" stroke="black" points="215.5,-172 215.5,-193 331.5,-193 331.5,-172 215.5,-172"/>
</g>
<!-- transport&#45;&gt;diagnostic -->
<g id="edge3" class="edge">
<title>transport:core_profiles_out&#45;&gt;diagnostic:core_profiles_in</title>
<path fill="none" stroke="black" stroke-width="2" d="M396.5,-258C396.5,-224.66 274.14,-228.96 245.46,-204.44"/>
<polygon fill="black" stroke="black" stroke-width="2" points="248.23,-202.25 240.5,-195 242.02,-205.49 248.23,-202.25"/>
<text text-anchor="middle" x="373.5" y="-223" font-family="Times,serif" font-size="10.00">core_profiles</text>
</g>
<!-- equilibrium&#45;&gt;diagnostic -->
<g id="edge4" class="edge">
<title>equilibrium:equilibrium_out&#45;&gt;diagnostic:equilibrium_in</title>
<path fill="none" stroke="black" stroke-width="2" d="M222.5,-258C222.5,-233.96 222.5,-224.93 222.5,-205.93"/>
<polygon fill="black" stroke="black" stroke-width="2" points="226,-206 222.5,-196 219,-206 226,-206"/>
<text text-anchor="middle" x="247" y="-223" font-family="Times,serif" font-size="10.00">equilibrium</text>
</g>
<!-- bridge -->
<g id="node7" class="node">
<title>bridge</title>
<polygon fill="#2998ba" stroke="none" points="234.5,-87 234.5,-106 243.5,-106 243.5,-87 234.5,-87"/>
<text text-anchor="start" x="236.5" y="-92.8" font-family="Times,serif" font-size="14.00">I</text>
<polygon fill="#eddea1" stroke="none" points="243.5,-87 243.5,-106 274.5,-106 274.5,-87 243.5,-87"/>
<text text-anchor="start" x="245.5" y="-92.8" font-family="Times,serif" font-size="14.00">RTD</text>
<text text-anchor="start" x="276.5" y="-93.8" font-family="Times,serif" font-weight="bold" font-size="14.00">bridge</text>
<polygon fill="#f1c40f" stroke="none" points="316.5,-87 316.5,-106 347.5,-106 347.5,-87 316.5,-87"/>
<text text-anchor="start" x="318.5" y="-92.8" font-family="Times,serif" font-size="14.00">RTD</text>
<polygon fill="#e67e22" stroke="none" points="347.5,-87 347.5,-106 366.5,-106 366.5,-87 347.5,-87"/>
<text text-anchor="start" x="349.5" y="-92.8" font-family="Times,serif" font-size="14.00">GI</text>
<polygon fill="none" stroke="black" points="233.5,-86 233.5,-107 367.5,-107 367.5,-86 233.5,-86"/>
</g>
<!-- diagnostic&#45;&gt;bridge -->
<g id="edge5" class="edge">
<title>diagnostic:interferometer_out&#45;&gt;bridge:interferometer_in</title>
<path fill="none" stroke="black" stroke-width="2" d="M326.5,-172C326.5,-128.31 255.47,-149.91 241.04,-119.48"/>
<polygon fill="black" stroke="black" stroke-width="2" points="243.92,-118.1 238.5,-109 237.06,-119.5 243.92,-118.1"/>
<text text-anchor="middle" x="334.5" y="-137" font-family="Times,serif" font-size="10.00">interferometer</text>
</g>
<!-- actuator -->
<g id="node6" class="node">
<title>actuator</title>
<polygon fill="#2998ba" stroke="none" points="404,-1 404,-20 423,-20 423,-1 404,-1"/>
<text text-anchor="start" x="406" y="-6.8" font-family="Times,serif" font-size="14.00">GI</text>
<polygon fill="#eddea1" stroke="none" points="423,-1 423,-20 427,-20 427,-1 423,-1"/>
<text text-anchor="start" x="429" y="-7.8" font-family="Times,serif" font-weight="bold" font-size="14.00">actuator</text>
<polygon fill="#f1c40f" stroke="none" points="480,-1 480,-20 484,-20 484,-1 480,-1"/>
<polygon fill="#e67e22" stroke="none" points="484,-1 484,-20 505,-20 505,-1 484,-1"/>
<text text-anchor="start" x="486" y="-6.8" font-family="Times,serif" font-size="14.00">CS</text>
<polygon fill="none" stroke="black" points="403,0 403,-21 506,-21 506,0 403,0"/>
</g>
<!-- actuator&#45;&gt;transport -->
<g id="edge8" class="edge">
<title>actuator:core_sources_out&#45;&gt;transport:core_sources_in</title>
<path fill="none" stroke="black" stroke-width="2" d="M494.5,-21C494.5,-122.2 477.98,-150.06 476.59,-245.1"/>
<polygon fill="black" stroke="black" stroke-width="2" points="473.07,-244.98 476.5,-255 480.07,-245.03 473.07,-244.98"/>
<text text-anchor="middle" x="512" y="-137" font-family="Times,serif" font-size="10.00">core_sources</text>
</g>
<!-- bridge&#45;&gt;actuator -->
<g id="edge6" class="edge">
<title>bridge:gas_injection_out&#45;&gt;actuator:gas_injection_in</title>
<path fill="none" stroke="black" stroke-width="2" d="M367.5,-96.5C383.85,-96.5 404.84,-57.83 411.43,-33.53"/>
<polygon fill="black" stroke="black" stroke-width="2" points="415.32,-33.44 413.5,-23 408.41,-32.29 415.32,-33.44"/>
<text text-anchor="middle" x="433.5" y="-51" font-family="Times,serif" font-size="10.00">gas_injection</text>
</g>
<!-- controller -->
<g id="node8" class="node">
<title>controller</title>
<polygon fill="#2998ba" stroke="none" points="153.5,-1 153.5,-20 157.5,-20 157.5,-1 153.5,-1"/>
<polygon fill="#eddea1" stroke="none" points="157.5,-1 157.5,-20 188.5,-20 188.5,-1 157.5,-1"/>
<text text-anchor="start" x="159.5" y="-6.8" font-family="Times,serif" font-size="14.00">RTD</text>
<text text-anchor="start" x="190.5" y="-7.8" font-family="Times,serif" font-weight="bold" font-size="14.00">controller</text>
<polygon fill="#f1c40f" stroke="none" points="250.5,-1 250.5,-20 281.5,-20 281.5,-1 250.5,-1"/>
<text text-anchor="start" x="252.5" y="-6.8" font-family="Times,serif" font-size="14.00">RTD</text>
<polygon fill="#e67e22" stroke="none" points="281.5,-1 281.5,-20 285.5,-20 285.5,-1 281.5,-1"/>
<polygon fill="none" stroke="black" points="152.5,0 152.5,-21 286.5,-21 286.5,0 152.5,0"/>
</g>
<!-- bridge&#45;&gt;controller -->
<g id="edge7" class="edge">
<title>bridge:real_time_data_out&#45;&gt;controller:real_time_data_in</title>
<path fill="none" stroke="black" stroke-width="2" d="M258.5,-86C258.5,-50.99 169.25,-76.56 189.5,-48 207.2,-23.04 249.85,-46.8 262.74,-33.05"/>
<polygon fill="black" stroke="black" stroke-width="2" points="266.86,-33.59 266.5,-23 260.18,-31.5 266.86,-33.59"/>
<text text-anchor="middle" x="220" y="-51" font-family="Times,serif" font-size="10.00">real_time_data</text>
</g>
<!-- controller&#45;&gt;bridge -->
<g id="edge9" class="edge">
<title>controller:real_time_data_out&#45;&gt;bridge:real_time_data_in</title>
<path fill="none" stroke="black" stroke-width="2" d="M172.5,-21C172.5,-60.21 220.19,-33.19 256.5,-48 270.43,-53.68 310.42,-62.45 326.09,-75.33"/>
<polygon fill="black" stroke="black" stroke-width="2" points="323.35,-77.23 331.5,-84 329.35,-73.63 323.35,-77.23"/>
<text text-anchor="middle" x="320" y="-51" font-family="Times,serif" font-size="10.00">real_time_data</text>
</g>
</g>
</svg>
